# xmcd
#
# Track frame offsets:
#	150
#	18075
#	35550
#	52200
#	67425
#	84600
#	103350
#	116700
#	130350
#	142800
#	157575
#	172125
#	185625
#	199725
#	215550
#	229425
#	243600
#	256650
#
# Disc length: 3631 seconds
#
# Revision: 1
# Processed by: cddbd v1.5.1PL2 Copyright (c) Steve Scherf et al.
# Submitted via: audiograbber 1.83.01
#
DISCID=140e2d12
DTITLE=Pioneer - P011
DYEAR=1900
DGENRE=Karaoke Country
TTITLE0=Judd, Wynonna - No One Else On Earth 
TTITLE1=Judd, Wynonna - I Saw The Light
TTITLE2=Boggess, Suzy - Someday Soon
TTITLE3=Carpenter, Mary Chapin - Down At The Twist And Shout
TTITLE4=Cash, Johnny - Riders In The Sky (A Cowboy Legend)
TTITLE5=Brooks and Dunn - Neon Moon
TTITLE6=Brooks and Dunn - My Next Broken Heart
TTITLE7=Kershaw, Sammy - Cadillac Style
TTITLE8=Twitty, Conway - This Time I'Ve Hurt Her More Than She Loves Me 
TTITLE9=Houston, David - Almost Persuaded
TTITLE10=Anderson, John - Black Sheep
TTITLE11=Gatlin, Larry - Broken Lady
TTITLE12=Rich, Charlie - A Very Special Love Song
TTITLE13=Twitty, Conway - Touch The Hand
TTITLE14=Frickie, Janie - He'S A Heartache Looking For A Place To Happen
TTITLE15=Reeves, Jim and Cline, Patsy - Distant Drums
TTITLE16=Tillis, Mel - Southern Rains
TTITLE17=Frizell, David and West, Shelly - You'Re The Reason God Made Oklahoma
EXTD=
EXTT0=
EXTT1=
EXTT2=
EXTT3=
EXTT4=
EXTT5=
EXTT6=
EXTT7=
EXTT8=
EXTT9=
EXTT10=
EXTT11=
EXTT12=
EXTT13=
EXTT14=
EXTT15=
EXTT16=
EXTT17=
PLAYORDER=
